<svg width="124" height="20" viewBox="0 0 124 20" fill="none" xmlns="http://www.w3.org/2000/svg">
<path fill-rule="evenodd" clip-rule="evenodd" d="M80.9502 0.564356H70.8554C70.7252 0.564356 70.6599 0.630756 70.6599 0.763382C70.3996 5.40498 69.5528 10.4443 68.3155 14.4894V14.622C68.3805 14.6884 68.4456 14.6884 68.5109 14.6884H72.0276C72.0929 14.6884 72.2231 14.622 72.2231 14.5558C73.2001 11.4394 73.9814 7.26181 74.2419 3.81358H77.5634V14.5558C77.5634 14.6884 77.6287 14.7548 77.7589 14.7548L81.0803 14.7545C81.2105 14.7545 81.2758 14.6881 81.2758 14.5556V0.763382C81.1454 0.630756 81.0803 0.564356 80.9502 0.564356ZM123.739 0.564356H120.417C120.287 0.564356 120.222 0.630756 120.222 0.763382V11.4391C119.506 11.6381 118.789 11.7042 117.942 11.7042C115.728 11.7042 115.272 11.0411 115.272 8.05723V0.763382C115.272 0.630756 115.207 0.564356 115.077 0.564356H111.755C111.625 0.564356 111.56 0.630756 111.56 0.763382V8.45528C111.56 13.2295 113.123 15.1525 117.226 15.1525C119.505 15.1525 122.175 14.5558 123.673 13.9588C123.739 13.9588 123.804 13.8262 123.804 13.7598V0.763382C123.934 0.630756 123.869 0.564356 123.739 0.564356ZM53.7267 0.630754H50.3404C50.2102 0.630754 50.1449 0.697182 50.1449 0.763382C49.6239 2.88526 48.5818 6.46593 47.084 10.1793L43.7625 0.630754C43.7625 0.564356 43.6321 0.498156 43.567 0.498156H40.1805C40.1152 0.498156 40.0503 0.564556 39.985 0.564556C39.9197 0.630957 39.9197 0.697182 39.985 0.763582L45.1299 14.8211C44.6089 15.882 44.0881 16.8106 43.6972 17.6725C43.3716 18.2691 43.0457 18.9323 42.6553 19.5954C42.59 19.6618 42.6553 19.728 42.6553 19.7944C42.7204 19.8607 42.7855 19.927 42.8508 19.927L46.4978 19.9267C46.5632 19.9267 46.628 19.8603 46.6933 19.7941C47.2794 18.6004 48.126 16.8765 48.8425 15.1525C50.9916 9.98028 52.7501 5.20606 53.9874 0.763382C53.9874 0.696882 53.9874 0.630754 53.9224 0.564356C53.8571 0.630754 53.792 0.630754 53.7267 0.630754ZM65.7753 11.4391C65.7753 11.3727 65.7102 11.3066 65.6452 11.3066H65.4497C64.6681 11.5717 63.1703 11.9032 62.0632 11.9032C59.7838 11.9032 58.6766 11.3066 58.6766 7.65958C58.6766 4.80821 59.0022 3.41583 62.0632 3.41583C62.91 3.41583 63.7564 3.54843 64.7335 3.87998C64.8636 3.87998 64.9289 3.87998 64.9289 3.74735C65.3198 3.01805 65.7755 2.15606 66.2963 1.02871V0.829781C66.2963 0.76338 66.2313 0.697182 66.1662 0.697182C64.7985 0.233006 63.1703 0.0339813 61.8029 0.0339813C57.0484 0.0339813 54.8992 2.28858 54.8992 7.52696C54.8992 12.8317 57.0484 15.1525 61.8677 15.1525C63.0402 15.1525 65.4497 14.8873 66.6222 14.4232C66.7523 14.3567 66.7523 14.2906 66.7523 14.2241C66.7523 14.1577 65.7753 11.4391 65.7753 11.4391ZM97.232 0.630754H93.8455C93.7801 0.630754 93.65 0.697182 93.65 0.763382C93.1287 2.88526 92.0869 6.46593 90.5891 10.1793L87.2025 0.697182C87.2025 0.630756 87.0724 0.564556 87.007 0.564556L83.6203 0.564356C83.5552 0.564356 83.4901 0.630754 83.4248 0.630754C83.3597 0.69718 83.3597 0.76338 83.4248 0.829781L88.5049 14.8873C87.9838 15.9482 87.463 16.8103 87.0721 17.7386C86.7463 18.3354 86.4207 18.9984 86.03 19.6616C85.965 19.728 86.03 19.7941 86.03 19.8605C86.0953 19.927 86.1604 19.9932 86.2255 19.9932L89.8725 19.9929C89.9376 19.9929 90.0027 19.9265 90.068 19.8603C90.6541 18.6666 91.5008 16.9427 92.217 15.2187C94.3663 10.0464 96.1248 5.27218 97.3621 0.829481C97.3621 0.763081 97.3621 0.69688 97.2968 0.63048L97.232 0.630754ZM109.606 0.564356H99.837C99.7066 0.564356 99.6415 0.630756 99.6415 0.763382V14.5556C99.6415 14.6881 99.7066 14.7545 99.837 14.7545H103.158C103.289 14.7545 103.354 14.6881 103.354 14.5556V3.87978L108.499 3.87998C108.564 3.87998 108.694 3.81358 108.694 3.74735C109.085 2.81913 109.476 1.82441 109.867 0.829781V0.630754C109.671 0.630754 109.671 0.564356 109.606 0.564356H109.606Z" fill="#EE3F58"/>
<path fill-rule="evenodd" clip-rule="evenodd" d="M17.7766 12.0356C15.5622 12.0356 14.911 11.4388 14.911 7.72547C14.911 3.74697 15.6273 3.41543 17.7766 3.41543C19.926 3.41543 20.7073 3.74697 20.7073 7.72547C20.7073 11.4388 19.991 12.0356 17.7766 12.0356ZM17.7766 0.1664C13.0222 0.1664 11.1335 2.22197 11.1335 7.65937C11.1335 13.1629 12.957 15.2188 17.7766 15.2188C22.5963 15.2188 24.4848 13.0967 24.4848 7.65937C24.4848 2.28837 22.596 0.1664 17.7766 0.1664ZM37.6404 11.4388C37.6404 11.3724 37.5753 11.3063 37.5102 11.3063H37.3148C36.5332 11.5715 35.0354 11.903 33.9282 11.903C31.6489 11.903 30.5417 11.3063 30.5417 7.65937C30.5417 4.808 30.8675 3.41562 33.9282 3.41562C34.7751 3.41562 35.6215 3.54822 36.5985 3.87977C36.6639 3.87977 36.794 3.87977 36.794 3.74715C37.1849 3.01785 37.6406 2.15585 38.1614 1.0285V0.829575C38.1614 0.763174 38.0964 0.696976 38.0313 0.696976C36.7287 0.299026 35.1007 0.100274 33.668 0.100274C28.8484 0.100274 26.6994 2.35478 26.6994 7.59315C26.6994 12.898 28.8484 15.2188 33.668 15.2188C34.8402 15.2188 37.25 14.9535 38.4222 14.4894C38.5526 14.4229 38.5526 14.3568 38.5526 14.2904C38.6827 14.2239 37.6406 11.4391 37.6406 11.4391L37.6404 11.4388ZM10.1568 0.564149H0.38786C0.257606 0.564149 0.192383 0.63055 0.192383 0.763176V14.5553C0.192383 14.6879 0.257606 14.7543 0.38786 14.7543H3.70915C3.83929 14.7543 3.9046 14.6879 3.9046 14.5553V3.87957L9.04964 3.87977C9.11486 3.87977 9.17988 3.81337 9.24502 3.74715C9.63598 2.81892 10.0265 1.8242 10.4175 0.829575V0.630549C10.2873 0.630549 10.222 0.564149 10.1571 0.564149H10.1568Z" fill="#0065B1"/>
</svg>
