<svg width="18" height="28" viewBox="0 0 18 28" fill="none" xmlns="http://www.w3.org/2000/svg">
<path d="M8.99955 15.1525C13.1838 15.1525 16.5758 11.7605 16.5758 7.57621C16.5758 3.39194 13.1838 0 8.99955 0C4.81528 0 1.42334 3.39199 1.42334 7.57626C1.42848 11.7584 4.81746 15.1473 8.99955 15.1525ZM8.99955 3.49673C11.2526 3.49673 13.0791 5.32317 13.0791 7.57626C13.0791 9.82936 11.2526 11.6558 8.99955 11.6558C6.74645 11.6558 4.92001 9.82936 4.92001 7.57626C4.92001 5.32317 6.74651 3.49673 8.99955 3.49673Z" fill="#FF9800"/>
<path d="M16.421 18.7425C17.2444 18.2002 17.7405 17.2807 17.7416 16.2948C17.7531 15.4766 17.2914 14.7252 16.5562 14.3658C15.8009 13.9885 14.8968 14.0734 14.2251 14.5849C11.1117 16.8547 6.88903 16.8547 3.77569 14.5849C3.10289 14.0761 2.20036 13.9913 1.44452 14.3658C0.709712 14.7252 0.247762 15.4757 0.257979 16.2936C0.259727 17.2793 0.755662 18.1985 1.57859 18.7413C2.63439 19.4434 3.78416 19.9928 4.99375 20.3731C5.19891 20.4368 5.41063 20.4959 5.62901 20.5503L2.10666 23.9946C1.18264 24.8911 1.1603 26.3669 2.05683 27.291C2.95336 28.215 4.42914 28.2373 5.3532 27.3408C5.37244 27.3221 5.39134 27.3032 5.40992 27.2838L8.99991 23.5679L12.5969 27.2908C13.4927 28.2155 14.9685 28.239 15.8932 27.3433C16.8179 26.4475 16.8414 24.9717 15.9457 24.0469C15.9269 24.0276 15.9079 24.0086 15.8885 23.9899L12.3719 20.5491C12.5902 20.4932 12.8028 20.4337 13.0095 20.3708C14.2177 19.9919 15.3664 19.4437 16.421 18.7425Z" fill="#FF9800"/>
</svg>
