<svg width="176" height="24" viewBox="0 0 176 24" fill="none" xmlns="http://www.w3.org/2000/svg">
<path d="M60.928 20L60.906 10.782L56.374 18.372H54.79L50.258 10.958V20H46.914V4.6H49.862L55.626 14.17L61.302 4.6H64.25L64.272 20H60.928ZM73.3776 20.176C72.1309 20.176 71.0089 19.9193 70.0116 19.406C69.0289 18.878 68.2589 18.152 67.7016 17.228C67.1443 16.304 66.8656 15.2553 66.8656 14.082C66.8656 12.9087 67.1443 11.86 67.7016 10.936C68.2589 10.012 69.0289 9.29333 70.0116 8.78C71.0089 8.252 72.1309 7.988 73.3776 7.988C74.6243 7.988 75.7389 8.252 76.7216 8.78C77.7043 9.29333 78.4743 10.012 79.0316 10.936C79.5889 11.86 79.8676 12.9087 79.8676 14.082C79.8676 15.2553 79.5889 16.304 79.0316 17.228C78.4743 18.152 77.7043 18.878 76.7216 19.406C75.7389 19.9193 74.6243 20.176 73.3776 20.176ZM73.3776 17.36C74.2576 17.36 74.9763 17.0667 75.5336 16.48C76.1056 15.8787 76.3916 15.0793 76.3916 14.082C76.3916 13.0847 76.1056 12.2927 75.5336 11.706C74.9763 11.1047 74.2576 10.804 73.3776 10.804C72.4976 10.804 71.7716 11.1047 71.1996 11.706C70.6276 12.2927 70.3416 13.0847 70.3416 14.082C70.3416 15.0793 70.6276 15.8787 71.1996 16.48C71.7716 17.0667 72.4976 17.36 73.3776 17.36ZM82.2281 8.164H85.6381V15.204L91.4021 8.164H94.5481V20H91.1381V12.96L85.3961 20H82.2281V8.164ZM88.1681 6.888C85.5868 6.888 84.2888 5.75133 84.2741 3.478H86.5181C86.5328 3.99133 86.6721 4.39467 86.9361 4.688C87.2148 4.96667 87.6181 5.106 88.1461 5.106C88.6741 5.106 89.0775 4.96667 89.3561 4.688C89.6495 4.39467 89.7961 3.99133 89.7961 3.478H92.0841C92.0695 5.75133 90.7641 6.888 88.1681 6.888ZM114.77 16.7H107.62L106.256 20H102.604L109.468 4.6H112.988L119.874 20H116.134L114.77 16.7ZM113.648 13.994L111.206 8.098L108.764 13.994H113.648ZM133.133 8.164V20H129.701V10.98H125.961L125.851 13.07C125.792 14.6247 125.646 15.9153 125.411 16.942C125.176 17.9687 124.795 18.7753 124.267 19.362C123.739 19.9487 123.006 20.242 122.067 20.242C121.568 20.242 120.974 20.154 120.285 19.978L120.461 17.162C120.696 17.1913 120.864 17.206 120.967 17.206C121.48 17.206 121.862 17.0227 122.111 16.656C122.375 16.2747 122.551 15.798 122.639 15.226C122.727 14.6393 122.793 13.8693 122.837 12.916L123.013 8.164H133.133ZM146.377 10.98H142.373V20H138.963V10.98H134.959V8.164H146.377V10.98ZM152.805 7.988C154.638 7.988 156.046 8.428 157.029 9.308C158.011 10.1733 158.503 11.486 158.503 13.246V20H155.291V18.526C154.645 19.626 153.443 20.176 151.683 20.176C150.773 20.176 149.981 20.022 149.307 19.714C148.647 19.406 148.141 18.9807 147.789 18.438C147.437 17.8953 147.261 17.2793 147.261 16.59C147.261 15.49 147.671 14.6247 148.493 13.994C149.329 13.3633 150.612 13.048 152.343 13.048H155.071C155.071 12.3 154.843 11.728 154.389 11.332C153.934 10.9213 153.252 10.716 152.343 10.716C151.712 10.716 151.089 10.8187 150.473 11.024C149.871 11.2147 149.358 11.4787 148.933 11.816L147.701 9.418C148.346 8.96333 149.116 8.61133 150.011 8.362C150.92 8.11267 151.851 7.988 152.805 7.988ZM152.541 17.866C153.127 17.866 153.648 17.734 154.103 17.47C154.557 17.1913 154.88 16.788 155.071 16.26V15.05H152.717C151.309 15.05 150.605 15.512 150.605 16.436C150.605 16.876 150.773 17.228 151.111 17.492C151.463 17.7413 151.939 17.866 152.541 17.866ZM161.484 8.164H164.894V15.204L170.658 8.164H173.804V20H170.394V12.96L164.652 20H161.484V8.164ZM167.424 6.888C164.843 6.888 163.545 5.75133 163.53 3.478H165.774C165.789 3.99133 165.928 4.39467 166.192 4.688C166.471 4.96667 166.874 5.106 167.402 5.106C167.93 5.106 168.333 4.96667 168.612 4.688C168.905 4.39467 169.052 3.99133 169.052 3.478H171.34C171.325 5.75133 170.02 6.888 167.424 6.888Z" fill="black"/>
<path d="M25.0761 1.12378L18.0004 13.9186L10.9239 1.12378L0 20.8762H36L25.0761 1.12378ZM25.0761 5.48554L27.2806 9.47233L26.6924 9.77348L25.1008 8.96292L23.5022 9.7777L22.8753 9.4653L25.0761 5.48554ZM8.72304 9.4653L10.924 5.48554L13.1285 9.47226L12.5406 9.77362L10.9493 8.96299L9.35072 9.77742L8.72304 9.46551V9.4653ZM15.3195 18.7652H3.5801L7.70041 11.3147L9.36225 12.1404L10.9491 11.332L12.5434 12.1441L14.1507 11.3201L16.7942 16.0991L15.3195 18.7652ZM21.8521 11.3152L23.514 12.1406L25.1007 11.3321L26.6951 12.1441L28.303 11.3201L32.4199 18.7653H17.7315L21.8521 11.3152Z" fill="black"/>
</svg>
